<svg xmlns="http://www.w3.org/2000/svg" width="32" height="32" viewBox="0 0 32 32">
  <!-- Pixel art chess knight profile (dark for invert on dark UI) -->
  <rect x="12" y="2" width="4" height="4" fill="#404040"/>
  <rect x="16" y="2" width="4" height="4" fill="#505050"/>
  <rect x="8" y="6" width="4" height="4" fill="#404040"/>
  <rect x="12" y="6" width="4" height="4" fill="#606060"/>
  <rect x="16" y="6" width="4" height="4" fill="#606060"/>
  <rect x="20" y="6" width="4" height="4" fill="#404040"/>
  <rect x="4" y="10" width="4" height="4" fill="#404040"/>
  <rect x="8" y="10" width="4" height="4" fill="#606060"/>
  <rect x="12" y="10" width="4" height="4" fill="#808080"/>
  <rect x="16" y="10" width="4" height="4" fill="#606060"/>
  <rect x="20" y="10" width="4" height="4" fill="#404040"/>
  <rect x="4" y="14" width="4" height="4" fill="#505050"/>
  <rect x="8" y="14" width="4" height="4" fill="#606060"/>
  <rect x="16" y="14" width="4" height="4" fill="#505050"/>
  <rect x="20" y="14" width="4" height="4" fill="#404040"/>
  <rect x="12" y="18" width="4" height="4" fill="#505050"/>
  <rect x="16" y="18" width="4" height="4" fill="#606060"/>
  <rect x="20" y="18" width="4" height="4" fill="#404040"/>
  <rect x="8" y="22" width="4" height="4" fill="#404040"/>
  <rect x="12" y="22" width="4" height="4" fill="#505050"/>
  <rect x="16" y="22" width="4" height="4" fill="#505050"/>
  <rect x="20" y="22" width="4" height="4" fill="#404040"/>
  <rect x="6" y="26" width="4" height="4" fill="#202020"/>
  <rect x="10" y="26" width="4" height="4" fill="#303030"/>
  <rect x="14" y="26" width="4" height="4" fill="#303030"/>
  <rect x="18" y="26" width="4" height="4" fill="#303030"/>
  <rect x="22" y="26" width="4" height="4" fill="#202020"/>
</svg>
